<mxfile host="app.diagrams.net" modified="2022-03-04T19:15:39.732Z" agent="5.0 (Macintosh; Intel Mac OS X 10_15_7) AppleWebKit/537.36 (KHTML, like Gecko) Chrome/98.0.4758.109 Safari/537.36" etag="IaeyVL5d9Y0mVliHowNz" version="16.6.6" type="github">
  <diagram id="6C0UiXFHKduYXytKHTj2" name="Page-1">
    <mxGraphModel dx="1226" dy="1075" grid="1" gridSize="10" guides="1" tooltips="1" connect="1" arrows="1" fold="1" page="1" pageScale="1" pageWidth="827" pageHeight="1169" math="0" shadow="0">
      <root>
        <mxCell id="0" />
        <mxCell id="1" parent="0" />
        <mxCell id="D-dzrnD8R2xBbWbBIDta-3" value="" style="strokeColor=#dddddd;shadow=1;strokeWidth=1;rounded=1;absoluteArcSize=1;arcSize=2;" vertex="1" parent="1">
          <mxGeometry x="80" y="80" width="250" height="60" as="geometry" />
        </mxCell>
        <mxCell id="D-dzrnD8R2xBbWbBIDta-4" value="&lt;font color=&quot;#000000&quot;&gt;Position Simulator&lt;/font&gt;&lt;br&gt;fleetman-node-position-simulator" style="sketch=0;dashed=0;connectable=0;html=1;fillColor=#5184F3;strokeColor=none;shape=mxgraph.gcp2.hexIcon;prIcon=apigee_sense;part=1;labelPosition=right;verticalLabelPosition=middle;align=left;verticalAlign=middle;spacingLeft=5;fontColor=#999999;fontSize=12;" vertex="1" parent="D-dzrnD8R2xBbWbBIDta-3">
          <mxGeometry y="0.5" width="44" height="39" relative="1" as="geometry">
            <mxPoint x="5" y="-19.5" as="offset" />
          </mxGeometry>
        </mxCell>
        <mxCell id="D-dzrnD8R2xBbWbBIDta-5" value="" style="strokeColor=#dddddd;shadow=1;strokeWidth=1;rounded=1;absoluteArcSize=1;arcSize=2;" vertex="1" parent="1">
          <mxGeometry x="80" y="200" width="250" height="60" as="geometry" />
        </mxCell>
        <mxCell id="D-dzrnD8R2xBbWbBIDta-6" value="&lt;font color=&quot;#000000&quot;&gt;Position Tracker&lt;/font&gt;&lt;br&gt;fleetman-node-position-tracker" style="sketch=0;dashed=0;connectable=0;html=1;fillColor=#5184F3;strokeColor=none;shape=mxgraph.gcp2.hexIcon;prIcon=apigee_sense;part=1;labelPosition=right;verticalLabelPosition=middle;align=left;verticalAlign=middle;spacingLeft=5;fontColor=#999999;fontSize=12;" vertex="1" parent="D-dzrnD8R2xBbWbBIDta-5">
          <mxGeometry y="0.5" width="44" height="39" relative="1" as="geometry">
            <mxPoint x="5" y="-19.5" as="offset" />
          </mxGeometry>
        </mxCell>
        <mxCell id="D-dzrnD8R2xBbWbBIDta-7" value="Vehicle Position &lt;br&gt;Queue" style="sketch=0;outlineConnect=0;fontColor=#232F3E;gradientColor=none;strokeColor=#232F3E;fillColor=#ffffff;dashed=0;verticalLabelPosition=bottom;verticalAlign=top;align=center;html=1;fontSize=12;fontStyle=0;aspect=fixed;shape=mxgraph.aws4.resourceIcon;resIcon=mxgraph.aws4.queue;" vertex="1" parent="1">
          <mxGeometry x="520" y="140" width="60" height="60" as="geometry" />
        </mxCell>
        <mxCell id="D-dzrnD8R2xBbWbBIDta-10" value="" style="endArrow=classic;html=1;rounded=0;exitX=1;exitY=0.5;exitDx=0;exitDy=0;" edge="1" parent="1" source="D-dzrnD8R2xBbWbBIDta-3" target="D-dzrnD8R2xBbWbBIDta-7">
          <mxGeometry width="50" height="50" relative="1" as="geometry">
            <mxPoint x="390" y="490" as="sourcePoint" />
            <mxPoint x="440" y="440" as="targetPoint" />
          </mxGeometry>
        </mxCell>
        <mxCell id="D-dzrnD8R2xBbWbBIDta-11" value="" style="endArrow=classic;html=1;rounded=0;" edge="1" parent="1" target="D-dzrnD8R2xBbWbBIDta-7">
          <mxGeometry width="50" height="50" relative="1" as="geometry">
            <mxPoint x="330" y="240" as="sourcePoint" />
            <mxPoint x="380" y="190" as="targetPoint" />
          </mxGeometry>
        </mxCell>
        <mxCell id="D-dzrnD8R2xBbWbBIDta-13" value="Client" style="sketch=0;aspect=fixed;html=1;points=[];align=center;image;fontSize=12;image=img/lib/mscae/CustomDomain.svg;" vertex="1" parent="1">
          <mxGeometry x="110" y="400" width="180" height="151.2" as="geometry" />
        </mxCell>
        <mxCell id="D-dzrnD8R2xBbWbBIDta-14" value="" style="endArrow=classic;html=1;rounded=0;" edge="1" parent="1">
          <mxGeometry width="50" height="50" relative="1" as="geometry">
            <mxPoint x="160" y="400" as="sourcePoint" />
            <mxPoint x="160" y="260" as="targetPoint" />
          </mxGeometry>
        </mxCell>
        <mxCell id="D-dzrnD8R2xBbWbBIDta-15" value="" style="endArrow=classic;html=1;rounded=0;exitX=0.5;exitY=1;exitDx=0;exitDy=0;" edge="1" parent="1" source="D-dzrnD8R2xBbWbBIDta-5">
          <mxGeometry width="50" height="50" relative="1" as="geometry">
            <mxPoint x="260" y="330" as="sourcePoint" />
            <mxPoint x="205" y="410" as="targetPoint" />
          </mxGeometry>
        </mxCell>
      </root>
    </mxGraphModel>
  </diagram>
</mxfile>
